<svg width="33" height="32" viewBox="0 0 33 32" fill="none" xmlns="http://www.w3.org/2000/svg">
<path d="M18.2812 30.0156C17.6562 30.0156 17.1758 29.8086 16.8398 29.3945C16.5039 28.9883 16.2383 28.4766 16.043 27.8594L14.4141 22.6445C14.2578 22.1602 14.2031 21.7109 14.25 21.2969C14.3047 20.875 14.4961 20.4805 14.8242 20.1133L27.1641 6.49609C27.2656 6.39453 27.3125 6.28906 27.3047 6.17969C27.2969 6.0625 27.2578 5.96875 27.1875 5.89844C27.1172 5.8125 27.0234 5.76953 26.9062 5.76953C26.7969 5.76953 26.6914 5.81641 26.5898 5.91016L12.9258 18.2617C12.5273 18.6211 12.1367 18.8164 11.7539 18.8477C11.3789 18.8789 10.9336 18.8125 10.418 18.6484L5.17969 17.0195C4.5625 16.8242 4.05469 16.5625 3.65625 16.2344C3.25781 15.8984 3.05859 15.418 3.05859 14.793C3.05859 14.2461 3.23047 13.7891 3.57422 13.4219C3.92578 13.0469 4.37891 12.7578 4.93359 12.5547L25.6875 4.62109C25.9141 4.52734 26.1328 4.46094 26.3438 4.42188C26.5625 4.375 26.7656 4.35156 26.9531 4.35156C27.4922 4.35156 27.9219 4.51172 28.2422 4.83203C28.5703 5.15234 28.7344 5.58203 28.7344 6.12109C28.7344 6.30078 28.7109 6.5 28.6641 6.71875C28.6172 6.92969 28.5469 7.15234 28.4531 7.38672L20.543 28.1172C20.3242 28.6875 20.0273 29.1445 19.6523 29.4883C19.2852 29.8398 18.8281 30.0156 18.2812 30.0156Z" fill="#B2B4B2"/>
</svg>
