<svg width="18" height="17" viewBox="0 0 18 17" fill="none" xmlns="http://www.w3.org/2000/svg">
<g filter="url(#filter0_i_2374_5786)">
<path d="M2.96875 16.0469C2.48958 16.0469 2.07292 15.9375 1.71875 15.7188C1.36458 15.5052 1.08854 15.2188 0.890625 14.8594C0.692708 14.5 0.59375 14.1068 0.59375 13.6797C0.59375 13.263 0.700521 12.8672 0.914062 12.4922L6.9375 1.97656C7.15625 1.58594 7.45052 1.29167 7.82031 1.09375C8.1901 0.890625 8.57552 0.789062 8.97656 0.789062C9.3776 0.789062 9.76042 0.888021 10.125 1.08594C10.4896 1.28385 10.7865 1.58073 11.0156 1.97656L17.0312 12.4844C17.1406 12.6771 17.2214 12.875 17.2734 13.0781C17.3255 13.276 17.3516 13.4766 17.3516 13.6797C17.3516 14.1068 17.2526 14.5 17.0547 14.8594C16.862 15.2188 16.5885 15.5052 16.2344 15.7188C15.8802 15.9375 15.4635 16.0469 14.9844 16.0469H2.96875ZM8.98438 10.4531C9.54167 10.4531 9.83594 10.1667 9.86719 9.59375L10 6.22656C10.0104 5.9349 9.91927 5.69792 9.72656 5.51562C9.53385 5.32812 9.28385 5.23438 8.97656 5.23438C8.66406 5.23438 8.41146 5.32552 8.21875 5.50781C8.03125 5.6901 7.94531 5.92708 7.96094 6.21875L8.08594 9.60156C8.11719 10.1693 8.41667 10.4531 8.98438 10.4531ZM8.98438 13.2812C9.29688 13.2812 9.55729 13.1901 9.76562 13.0078C9.97917 12.8255 10.0859 12.5859 10.0859 12.2891C10.0859 11.9922 9.97917 11.7526 9.76562 11.5703C9.55729 11.388 9.29688 11.2969 8.98438 11.2969C8.67188 11.2969 8.40885 11.388 8.19531 11.5703C7.98177 11.7526 7.875 11.9922 7.875 12.2891C7.875 12.5859 7.98177 12.8255 8.19531 13.0078C8.41406 13.1901 8.67708 13.2812 8.98438 13.2812Z" fill="#BA7F26"/>
</g>
<defs>
<filter id="filter0_i_2374_5786" x="0.59375" y="0.789062" width="16.7578" height="15.2578" filterUnits="userSpaceOnUse" color-interpolation-filters="sRGB">
<feFlood flood-opacity="0" result="BackgroundImageFix"/>
<feBlend mode="normal" in="SourceGraphic" in2="BackgroundImageFix" result="shape"/>
<feColorMatrix in="SourceAlpha" type="matrix" values="0 0 0 0 0 0 0 0 0 0 0 0 0 0 0 0 0 0 127 0" result="hardAlpha"/>
<feOffset/>
<feGaussianBlur stdDeviation="1"/>
<feComposite in2="hardAlpha" operator="arithmetic" k2="-1" k3="1"/>
<feColorMatrix type="matrix" values="0 0 0 0 0 0 0 0 0 0 0 0 0 0 0 0 0 0 0.25 0"/>
<feBlend mode="normal" in2="shape" result="effect1_innerShadow_2374_5786"/>
</filter>
</defs>
</svg>
