<svg width="17" height="17" viewBox="0 0 17 17" fill="none" xmlns="http://www.w3.org/2000/svg">
<path d="M2.49219 16.0469C2.01302 16.0469 1.59635 15.9375 1.24219 15.7188C0.888021 15.5052 0.611979 15.2188 0.414062 14.8594C0.216146 14.5 0.117188 14.1068 0.117188 13.6797C0.117188 13.263 0.223958 12.8672 0.4375 12.4922L6.46094 1.97656C6.67969 1.58594 6.97396 1.29167 7.34375 1.09375C7.71354 0.890625 8.09896 0.789062 8.5 0.789062C8.90104 0.789062 9.28385 0.888021 9.64844 1.08594C10.013 1.28385 10.3099 1.58073 10.5391 1.97656L16.5547 12.4844C16.6641 12.6771 16.7448 12.875 16.7969 13.0781C16.849 13.276 16.875 13.4766 16.875 13.6797C16.875 14.1068 16.776 14.5 16.5781 14.8594C16.3854 15.2188 16.112 15.5052 15.7578 15.7188C15.4036 15.9375 14.987 16.0469 14.5078 16.0469H2.49219ZM8.50781 10.4531C9.0651 10.4531 9.35938 10.1667 9.39062 9.59375L9.52344 6.22656C9.53385 5.9349 9.44271 5.69792 9.25 5.51562C9.05729 5.32812 8.80729 5.23438 8.5 5.23438C8.1875 5.23438 7.9349 5.32552 7.74219 5.50781C7.55469 5.6901 7.46875 5.92708 7.48438 6.21875L7.60938 9.60156C7.64062 10.1693 7.9401 10.4531 8.50781 10.4531ZM8.50781 13.2812C8.82031 13.2812 9.08073 13.1901 9.28906 13.0078C9.5026 12.8255 9.60938 12.5859 9.60938 12.2891C9.60938 11.9922 9.5026 11.7526 9.28906 11.5703C9.08073 11.388 8.82031 11.2969 8.50781 11.2969C8.19531 11.2969 7.93229 11.388 7.71875 11.5703C7.50521 11.7526 7.39844 11.9922 7.39844 12.2891C7.39844 12.5859 7.50521 12.8255 7.71875 13.0078C7.9375 13.1901 8.20052 13.2812 8.50781 13.2812Z" fill="#BA7F26"/>
</svg>
