<svg width="20" height="21" viewBox="0 0 20 21" fill="none" xmlns="http://www.w3.org/2000/svg">
<path d="M3.96875 18.0469C3.48958 18.0469 3.07292 17.9375 2.71875 17.7188C2.36458 17.5052 2.08854 17.2188 1.89062 16.8594C1.69271 16.5 1.59375 16.1068 1.59375 15.6797C1.59375 15.263 1.70052 14.8672 1.91406 14.4922L7.9375 3.97656C8.15625 3.58594 8.45052 3.29167 8.82031 3.09375C9.1901 2.89062 9.57552 2.78906 9.97656 2.78906C10.3776 2.78906 10.7604 2.88802 11.125 3.08594C11.4896 3.28385 11.7865 3.58073 12.0156 3.97656L18.0312 14.4844C18.1406 14.6771 18.2214 14.875 18.2734 15.0781C18.3255 15.276 18.3516 15.4766 18.3516 15.6797C18.3516 16.1068 18.2526 16.5 18.0547 16.8594C17.862 17.2188 17.5885 17.5052 17.2344 17.7188C16.8802 17.9375 16.4635 18.0469 15.9844 18.0469H3.96875ZM9.98438 12.4531C10.5417 12.4531 10.8359 12.1667 10.8672 11.5938L11 8.22656C11.0104 7.9349 10.9193 7.69792 10.7266 7.51562C10.5339 7.32812 10.2839 7.23438 9.97656 7.23438C9.66406 7.23438 9.41146 7.32552 9.21875 7.50781C9.03125 7.6901 8.94531 7.92708 8.96094 8.21875L9.08594 11.6016C9.11719 12.1693 9.41667 12.4531 9.98438 12.4531ZM9.98438 15.2812C10.2969 15.2812 10.5573 15.1901 10.7656 15.0078C10.9792 14.8255 11.0859 14.5859 11.0859 14.2891C11.0859 13.9922 10.9792 13.7526 10.7656 13.5703C10.5573 13.388 10.2969 13.2969 9.98438 13.2969C9.67188 13.2969 9.40885 13.388 9.19531 13.5703C8.98177 13.7526 8.875 13.9922 8.875 14.2891C8.875 14.5859 8.98177 14.8255 9.19531 15.0078C9.41406 15.1901 9.67708 15.2812 9.98438 15.2812Z" fill="#BA7F26"/>
</svg>
