<svg fill="none" height="22" viewBox="0 0 22 22" width="22" xmlns="http://www.w3.org/2000/svg"><path d="m11.0083 15.7798c-.3984 0-.7637-.1633-1.0957-.4898l-6.14258-6.28365c-.12175-.12728-.21582-.26563-.28223-.41504-.06087-.15495-.09131-.32096-.09131-.49805 0-.24902.05811-.47314.17432-.67236.12175-.20475.28223-.36524.48145-.48145.19921-.12174.42057-.18261.66406-.18261.37077 0 .69726.14111.97949.42334l5.6528 5.81882h-.6723l5.6362-5.81882c.2822-.28223.606-.42334.9712-.42334.2435 0 .4648.06087.6641.18261.1992.11621.3569.2767.4731.48145.1217.19922.1826.42334.1826.67236 0 .3597-.1245.66406-.3735.91309l-6.1343 6.28365c-.166.1661-.3376.2878-.5146.3653-.1771.0774-.368.119-.5728.1245z" fill="#2c2e2c"/></svg>