<svg fill="none" height="22" viewBox="0 0 22 22" width="22" xmlns="http://www.w3.org/2000/svg"><path d="m5.04688 18.9507c-.94629 0-1.67123-.2518-2.17481-.7554-.50358-.498-.75537-1.2174-.75537-2.1582v-10.04394c0-.94075.25179-1.66015.75537-2.1582.50358-.50358 1.22852-.75537 2.17481-.75537h11.57132c.9463 0 1.6684.25179 2.1665.75537.5035.49805.7553 1.21745.7553 2.1582v10.04394c0 .9408-.2518 1.6602-.7553 2.1582-.4981.5036-1.2202.7554-2.1665.7554zm.15771-2.1416h11.24751c.3099 0 .5451-.0775.7056-.2324.1605-.155.2407-.3957.2407-.7222v-7.3877c0-.32097-.0802-.55892-.2407-.71387s-.3957-.23242-.7056-.23242h-11.24751c-.3099 0-.54508.07747-.70557.23242-.16048.15495-.24072.3929-.24072.71387v7.3877c0 .3265.08024.5672.24072.7222.16049.1549.39567.2324.70557.2324zm4.07568-6.5908c-.15494 0-.26285-.0305-.32373-.0913-.06087-.0609-.09131-.16606-.09131-.31548v-.48974c0-.14942.03044-.25179.09131-.30713.06088-.06087.16879-.09131.32373-.09131h.48145c.15495 0 .26288.03044.32368.09131.0609.05534.0914.15771.0914.30713v.48974c0 .14942-.0305.25458-.0914.31548-.0608.0608-.16873.0913-.32368.0913zm2.63133 0c-.1494 0-.2545-.0305-.3154-.0913-.0609-.0609-.0913-.16606-.0913-.31548v-.48974c0-.14942.0304-.25179.0913-.30713.0609-.06087.166-.09131.3154-.09131h.4898c.1549 0 .2628.03044.3237.09131.0609.05534.0913.15771.0913.30713v.48974c0 .14942-.0304.25458-.0913.31548-.0609.0608-.1688.0913-.3237.0913zm2.6397 0c-.1494 0-.2546-.0305-.3155-.0913-.0608-.0609-.0913-.16606-.0913-.31548v-.48974c0-.14942.0305-.25179.0913-.30713.0609-.06087.1661-.09131.3155-.09131h.4897c.155 0 .2629.03044.3237.09131.0609.05534.0914.15771.0914.30713v.48974c0 .14942-.0305.25458-.0914.31548-.0608.0608-.1687.0913-.3237.0913zm-7.91068 2.5898c-.15494 0-.26285-.0277-.32373-.083-.06087-.0609-.0913-.166-.0913-.3154v-.4898c0-.1494.03043-.2518.0913-.3071.06088-.0609.16879-.0913.32373-.0913h.48975c.14942 0 .25456.0304.31543.0913.06087.0553.09131.1577.09131.3071v.4898c0 .1494-.03044.2545-.09131.3154-.06087.0553-.16601.083-.31543.083zm2.63965 0c-.15494 0-.26285-.0277-.32373-.083-.06087-.0609-.09131-.166-.09131-.3154v-.4898c0-.1494.03044-.2518.09131-.3071.06088-.0609.16879-.0913.32373-.0913h.48145c.15495 0 .26288.0304.32368.0913.0609.0553.0914.1577.0914.3071v.4898c0 .1494-.0305.2545-.0914.3154-.0608.0553-.16873.083-.32368.083zm2.63133 0c-.1494 0-.2545-.0277-.3154-.083-.0609-.0609-.0913-.166-.0913-.3154v-.4898c0-.1494.0304-.2518.0913-.3071.0609-.0609.166-.0913.3154-.0913h.4898c.1549 0 .2628.0304.3237.0913.0609.0553.0913.1577.0913.3071v.4898c0 .1494-.0304.2545-.0913.3154-.0609.0553-.1688.083-.3237.083zm2.6397 0c-.1494 0-.2546-.0277-.3155-.083-.0608-.0609-.0913-.166-.0913-.3154v-.4898c0-.1494.0305-.2518.0913-.3071.0609-.0609.1661-.0913.3155-.0913h.4897c.155 0 .2629.0304.3237.0913.0609.0553.0914.1577.0914.3071v.4898c0 .1494-.0305.2545-.0914.3154-.0608.0553-.1687.083-.3237.083zm-7.91068 2.5981c-.15494 0-.26285-.0276-.32373-.083-.06087-.0608-.0913-.1687-.0913-.3237v-.4814c0-.155.03043-.2601.0913-.3155.06088-.0553.16879-.083.32373-.083h.48975c.14942 0 .25456.0277.31543.083.06087.0554.09131.1605.09131.3155v.4814c0 .155-.03044.2629-.09131.3237-.06087.0554-.16601.083-.31543.083zm2.63965 0c-.15494 0-.26285-.0276-.32373-.083-.06087-.0608-.09131-.1687-.09131-.3237v-.4814c0-.155.03044-.2601.09131-.3155.06088-.0553.16879-.083.32373-.083h.48145c.15495 0 .26288.0277.32368.083.0609.0554.0914.1605.0914.3155v.4814c0 .155-.0305.2629-.0914.3237-.0608.0554-.16873.083-.32368.083zm2.63133 0c-.1494 0-.2545-.0276-.3154-.083-.0609-.0608-.0913-.1687-.0913-.3237v-.4814c0-.155.0304-.2601.0913-.3155.0609-.0553.166-.083.3154-.083h.4898c.1549 0 .2628.0277.3237.083.0609.0554.0913.1605.0913.3155v.4814c0 .155-.0304.2629-.0913.3237-.0609.0554-.1688.083-.3237.083z" fill="#2c2e2c"/></svg>