<svg fill="none" height="20" viewBox="0 0 20 20" width="20" xmlns="http://www.w3.org/2000/svg"><path d="m3.79688 16.5703c-.1823-.1875-.30469-.4062-.36719-.6562-.05729-.25-.05729-.4974 0-.7422.0625-.2448.17969-.4531.35156-.625l4.17187-4.1797-4.17187-4.16408c-.17187-.17187-.28646-.3802-.34375-.625-.05729-.25-.05729-.5 0-.75s.17708-.46614.35938-.64843c.18229-.1875.39843-.3099.64843-.36719.25521-.05729.50521-.05729.75 0 .25.05729.46094.17188.63281.34375l4.17188 4.16406 4.1641-4.15625c.177-.17708.388-.29427.6328-.35156.2448-.0625.4896-.0625.7343 0 .25.0625.4662.1875.6485.375.1875.18229.3125.39583.375.64062.0625.2448.0625.49219 0 .74219-.0573.24479-.1745.45573-.3516.63281l-4.1562 4.16408 4.1562 4.1719c.1771.177.2943.3906.3516.6406.0625.2448.0625.4922 0 .7422-.0625.2448-.1875.4583-.375.6406-.1823.1823-.3985.3047-.6485.3672-.2447.0625-.4895.0651-.7343.0078s-.4558-.1771-.6328-.3594l-4.1641-4.164-4.17188 4.1718c-.17187.1719-.38281.2865-.63281.3438-.24479.0625-.49219.0625-.74219 0-.25-.0573-.46874-.1771-.65624-.3594z" fill="#2c2e2c"/></svg>