<svg width="17" height="22" viewBox="0 0 17 22" fill="none" xmlns="http://www.w3.org/2000/svg">
<path d="M6.20215 18.6665C5.90169 18.6665 5.6626 18.584 5.48486 18.4189C5.31136 18.2581 5.22673 18.0339 5.23096 17.7461L5.36426 10.4399C5.36426 10.2834 5.34098 10.1649 5.29443 10.0845C5.25212 10.0041 5.17383 9.93848 5.05957 9.8877C4.75065 9.74805 4.49886 9.59359 4.3042 9.42432C4.10954 9.25505 3.96777 9.03923 3.87891 8.77686C3.79427 8.51025 3.76253 8.16325 3.78369 7.73584L3.97412 3.86377C3.98258 3.69873 4.03125 3.56966 4.12012 3.47656C4.21322 3.37923 4.33805 3.33057 4.49463 3.33057C4.64697 3.33057 4.76335 3.37923 4.84375 3.47656C4.92839 3.57389 4.9707 3.70719 4.9707 3.87646L4.91357 7.62158C4.90934 7.88395 5.02783 8.01514 5.26904 8.01514C5.37907 8.01514 5.46582 7.98128 5.5293 7.91357C5.59701 7.84587 5.63298 7.75488 5.63721 7.64062L5.70068 3.74951C5.70492 3.5887 5.75146 3.46175 5.84033 3.36865C5.9292 3.27132 6.0498 3.22266 6.20215 3.22266C6.35449 3.22266 6.4751 3.27132 6.56396 3.36865C6.65283 3.46175 6.69938 3.5887 6.70361 3.74951L6.77344 7.64062C6.77344 7.75911 6.80518 7.85221 6.86865 7.91992C6.93636 7.9834 7.02523 8.01514 7.13525 8.01514C7.24105 8.01514 7.32568 7.98128 7.38916 7.91357C7.45264 7.84587 7.48438 7.74854 7.48438 7.62158L7.43359 3.87646C7.43359 3.70719 7.47591 3.57389 7.56055 3.47656C7.64518 3.37923 7.76156 3.33057 7.90967 3.33057C8.23551 3.33057 8.40902 3.5083 8.43018 3.86377L8.61426 7.73584C8.63542 8.16325 8.60156 8.51025 8.5127 8.77686C8.42806 9.03923 8.28841 9.25505 8.09375 9.42432C7.89909 9.59359 7.64941 9.74805 7.34473 9.8877C7.23047 9.93848 7.15007 10.0041 7.10352 10.0845C7.05697 10.1649 7.03581 10.2834 7.04004 10.4399L7.17334 17.7461C7.17334 18.0339 7.08659 18.2581 6.91309 18.4189C6.73958 18.584 6.5026 18.6665 6.20215 18.6665ZM11.3945 12.9092C11.3988 12.7695 11.3755 12.6553 11.3247 12.5664C11.2739 12.4775 11.1893 12.3908 11.0708 12.3062L10.7979 12.1221C10.5905 11.9824 10.4445 11.8301 10.3599 11.665C10.2752 11.5 10.2329 11.2948 10.2329 11.0493V10.6621C10.2329 10.0316 10.2773 9.38411 10.3662 8.71973C10.4593 8.05534 10.5884 7.40788 10.7534 6.77734C10.9227 6.14258 11.1174 5.55859 11.3374 5.02539C11.5617 4.48796 11.8071 4.03516 12.0737 3.66699C12.1838 3.51465 12.2874 3.40251 12.3848 3.33057C12.4821 3.25863 12.5942 3.22266 12.7212 3.22266C12.8651 3.22266 12.9857 3.26921 13.083 3.3623C13.1803 3.4554 13.229 3.58447 13.229 3.74951V17.7715C13.229 18.0508 13.1423 18.2687 12.9688 18.4253C12.7952 18.5861 12.5562 18.6665 12.2515 18.6665C11.951 18.6665 11.7119 18.584 11.5342 18.4189C11.3607 18.2581 11.276 18.0296 11.2803 17.7334L11.3945 12.9092Z" fill="#8AAD68"/>
</svg>
