<svg width="17" height="22" viewBox="0 0 17 22" fill="none" xmlns="http://www.w3.org/2000/svg">
<path d="M10.2139 16.2476V12.2612C10.2139 12.1089 10.1673 11.9883 10.0742 11.8994C9.98535 11.8063 9.86475 11.7598 9.7124 11.7598H7.29395C7.1416 11.7598 7.01888 11.8063 6.92578 11.8994C6.83268 11.9883 6.78613 12.1089 6.78613 12.2612V16.2476H10.2139ZM2.63477 16.311L2.63477 11.8169L8.09375 7.23389C8.36882 7.00537 8.64176 7.00537 8.9126 7.23389L14.3652 11.8169V16.311C14.3652 16.7977 14.215 17.1807 13.9146 17.46C13.6183 17.7435 13.2163 17.8853 12.7085 17.8853H4.29785C3.78581 17.8853 3.37956 17.7435 3.0791 17.46C2.78288 17.1807 2.63477 16.7977 2.63477 16.311ZM0.451172 10.5347C0.451172 10.285 0.561198 10.0671 0.78125 9.88086L7.39551 4.32666C7.73405 4.04313 8.10433 3.90137 8.50635 3.90137C8.9126 3.90137 9.28288 4.04313 9.61719 4.32666L16.2251 9.87451C16.4409 10.0565 16.5488 10.2808 16.5488 10.5474C16.5488 10.7843 16.4705 10.9727 16.314 11.1123C16.1616 11.252 15.9648 11.3218 15.7236 11.3218C15.6051 11.3218 15.4909 11.2964 15.3809 11.2456C15.2708 11.1906 15.1672 11.1229 15.0698 11.0425L8.86182 5.83105C8.74756 5.73372 8.62907 5.68506 8.50635 5.68506C8.38786 5.68506 8.27148 5.73372 8.15723 5.83105L1.93652 11.0425C1.83919 11.1229 1.73551 11.1906 1.62549 11.2456C1.51546 11.2964 1.4012 11.3218 1.28271 11.3218C1.02881 11.3218 0.825684 11.2477 0.67334 11.0996C0.525228 10.9473 0.451172 10.759 0.451172 10.5347ZM12.2769 7.08789V5.58984C12.2769 5.44173 12.3213 5.32324 12.4102 5.23438C12.5033 5.14551 12.6239 5.10107 12.772 5.10107H13.9399C14.0881 5.10107 14.2065 5.14551 14.2954 5.23438C14.3843 5.32324 14.4287 5.44173 14.4287 5.58984V8.88428L12.2769 7.08789Z" fill="#8AAD68"/>
</svg>
