<svg fill="none" height="58" viewBox="0 0 91 58" width="91" xmlns="http://www.w3.org/2000/svg" xmlns:xlink="http://www.w3.org/1999/xlink"><clipPath id="a"><path d="m0 0h56.2821v20.2616h-56.2821z" transform="matrix(0 1 -1 0 20.7627 .951172)"/></clipPath><g clip-path="url(#a)"><path d="m1.53857 29.814v9.8584c0 2.1779 1.7655 3.9434 3.94335 3.9434h4.68278c2.1778 0 3.9433-1.7655 3.9433-3.9434v-29.3286" stroke="#fff" stroke-width="1.84845"/><g fill="#fff"><path clip-rule="evenodd" d="m15.1904 11.8708c.9097-.4126.8605-2.4814-.1099-4.62085-.9703-2.13944-2.4944-3.53935-3.404-3.12677-.9097.41257-.8605 2.4814.1099 4.62084.9704 2.13948 2.4944 3.53938 3.404 3.12678zm-.7642-1.684c.2329-.1057-.0228-1.1714-.5712-2.38043-.5484-1.20902-1.1817-2.1035-1.4146-1.99787s.0229 1.17137.5712 2.38039c.5484 1.20902 1.1817 2.10351 1.4146 1.99791z" fill-rule="evenodd"/><path clip-rule="evenodd" d="m15.1904 11.8708c.9097-.4126.8605-2.4814-.1099-4.62085-.9703-2.13944-2.4944-3.53935-3.404-3.12677-.9097.41257-.8605 2.4814.1099 4.62084.9704 2.13948 2.4944 3.53938 3.404 3.12678zm-.7642-1.684c.2329-.1057-.0228-1.1714-.5712-2.38043-.5484-1.20902-1.1817-2.1035-1.4146-1.99787s.0229 1.17137.5712 2.38039c.5484 1.20902 1.1817 2.10351 1.4146 1.99791z" fill-rule="evenodd"/><path clip-rule="evenodd" d="m15.1904 11.8708c.9097-.4126.8605-2.4814-.1099-4.62085-.9703-2.13944-2.4944-3.53935-3.404-3.12677-.9097.41257-.8605 2.4814.1099 4.62084.9704 2.13948 2.4944 3.53938 3.404 3.12678zm-.7642-1.684c.2329-.1057-.0228-1.1714-.5712-2.38043-.5484-1.20902-1.1817-2.1035-1.4146-1.99787s.0229 1.17137.5712 2.38039c.5484 1.20902 1.1817 2.10351 1.4146 1.99791z" fill-rule="evenodd"/><path d="m20.7203 20.0388c-.4302-.6847-4.0612-6.4678-5.8731-9.449v24.3455l5.7705 18.5663c.0251.081.1445.0628.1445-.0219v-10.593c0-.028-.0042-.0559-.0125-.0826l-4.2448-13.6654c-.0089-.0286.0315-.0453.0454-.0187l4.0725 7.7756c.0358.0684.1394.043.1394-.0343v-6.6886c0-.0377-.0077-.075-.0225-.1096l-3.9589-9.2451c-.0117-.0272.0258-.0481.0428-.0238l3.8041 5.4243c.0415.0592.1345.0298.1345-.0424v-5.9903c0-.0524-.0141-.1026-.0419-.147z"/><path clip-rule="evenodd" d="m8.19313 37.6897c0 .0655.07879.0986.12561.0529l5.29646-5.1755v-19.2663l-5.42207 5.539v8.5079c0 .0655.07879.0986.12561.0529l4.83076-4.7204c.0312-.0305.0839-.0084.0842.0353.0001.01.0001.0199.0002.0298.0036.4996.0063 1.2293-.4075 1.6336l-4.63327 4.5274v1.6896c0 .0659.07968.0989.12624.0522l4.82963-4.8347c.0311-.0311.0844-.0091.0847.0349.0001.0093.0001.0186.0002.0278.0036.4995.0063 1.1088-.4075 1.5132l-4.63327 4.5274v1.4517c0 .0655.07879.0987.12561.0529l4.91446-4.8022c0 .0503.0004.0992.0007.147.0036.4995.0063 1.1088-.4075 1.5131l-4.63327 4.5274z" fill-rule="evenodd"/><path d="m.614258 23.2227v6.7694h1.693462c1.20942 2.1202 2.48801 2.4707 3.12394 2.5287.1217.0111.19153-.1282.11942-.2268-2.03129-2.7793-3.86615-6.983-4.689624-9.1178-.049729-.1289-.247198-.0917-.247198.0465z"/></g></g><g fill="#fff"><path d="m69.8823 15.1025h6.5241c1.5732 0 2.9014.2477 3.9847.7431 1.0887.4899 1.9025 1.1703 2.4414 2.0413.5444.871.8166 1.8726.8166 3.0049 0 1.105-.2831 2.1039-.8492 2.9966-.5607.8928-1.4208 1.6032-2.5803 2.1312-1.154.528-2.5802.792-4.2786.792h-6.0587zm5.9852 8.7288c.7077 0 1.3092-.1198 1.8045-.3593.4954-.2395.8683-.5797 1.1187-1.0207.2504-.4463.3756-.9716.3756-1.5759 0-.8546-.2558-1.5323-.7675-2.0331-.5063-.5063-1.2711-.7594-2.2945-.7594h-2.0413v5.7484z"/><path d="m68.534 23.3985v3.4131h-10.7537v-11.7091h4.1806v8.296z"/><path d="m51.3965 15.0859h4.1806v11.7255h-4.1806z"/><path d="m50.1301 15.1016-2.9395 11.709h-5.3565l-2.0658-7.2099-1.9597 7.2099h-4.8338l-2.9641-11.709h4.2134l1.5677 6.8425 1.8454-6.8425h4.6705l2.0087 7.2099 1.6331-7.2099z"/><path d="m87.9993 40.55v2.9804h-10.9007v-11.7091h10.8518v2.9803h-6.6711v1.4371h6.3363v2.7436h-6.3363v1.5677z"/><path d="m74.8935 31.8213v11.7091h-5.332l-4.1153-7.3897v7.3897h-3.7152v-11.7091h5.5034l3.9602 7.259v-7.259z"/><path d="m55.3452 31.8047h4.1807v11.7254h-4.1807z"/><path d="m53.9989 40.1173v3.4131h-10.7538v-11.7091h4.1807v8.296z"/></g></svg>