<svg fill="none" height="20" viewBox="0 0 20 20" width="20" xmlns="http://www.w3.org/2000/svg"><path d="m4.82178 10.8325c-.18555 0-.36133-.0513-.52735-.1538-.16601-.1025-.30273-.2368-.41015-.4028-.10254-.1709-.15381-.35647-.15381-.55666 0-.2002.05127-.3833.15381-.54932.10742-.1709.24414-.30517.41015-.40283.16602-.10254.3418-.15381.52735-.15381h10.35642c.1953 0 .376.05127.542.15381.166.09766.2979.23193.3955.40283.1026.16602.1538.34912.1538.54932 0 .20019-.0512.38576-.1538.55666-.0976.166-.2295.3003-.3955.4028s-.3467.1538-.542.1538z" fill="#2c2e2c"/></svg>