<svg fill="none" height="20" viewBox="0 0 20 20" width="20" xmlns="http://www.w3.org/2000/svg"><path d="m3.71582 9.71191c0-.30761.10742-.56884.32227-.78369.21972-.21972.48339-.32959.79101-.32959h4.06494v-4.05761c0-.30762.10742-.56885.32227-.7837.21484-.21972.47607-.32959.78369-.32959.3076 0 .5688.10987.7837.32959.2197.21485.3296.47608.3296.7837v4.05761h4.0649c.3028 0 .5615.10987.7764.32959.2197.21485.3296.47608.3296.78369 0 .30759-.1099.57129-.3296.79099-.2149.2149-.4736.3223-.7764.3223h-4.0649v4.0649c0 .3028-.1099.5616-.3296.7764-.2149.2197-.4761.3296-.7837.3296-.30762 0-.56885-.1099-.78369-.3296-.21485-.2148-.32227-.4736-.32227-.7764v-4.0649h-4.06494c-.30762 0-.57129-.1074-.79101-.3223-.21485-.2197-.32227-.4834-.32227-.79099z" fill="#2c2e2c"/></svg>