<svg width="34" height="34" viewBox="0 0 34 34" fill="none" xmlns="http://www.w3.org/2000/svg">
<rect width="34" height="34" rx="17" fill="#F5F5F5"/>
<path d="M10.2969 17.1094C10.2969 16.7812 10.4115 16.5026 10.6406 16.2734C10.875 16.0391 11.1562 15.9219 11.4844 15.9219H15.8203V11.5938C15.8203 11.2656 15.9349 10.987 16.1641 10.7578C16.3932 10.5234 16.6719 10.4062 17 10.4062C17.3281 10.4062 17.6068 10.5234 17.8359 10.7578C18.0703 10.987 18.1875 11.2656 18.1875 11.5938V15.9219H22.5234C22.8464 15.9219 23.1224 16.0391 23.3516 16.2734C23.5859 16.5026 23.7031 16.7812 23.7031 17.1094C23.7031 17.4375 23.5859 17.7188 23.3516 17.9531C23.1224 18.1823 22.8464 18.2969 22.5234 18.2969H18.1875V22.6328C18.1875 22.9557 18.0703 23.2318 17.8359 23.4609C17.6068 23.6953 17.3281 23.8125 17 23.8125C16.6719 23.8125 16.3932 23.6953 16.1641 23.4609C15.9349 23.2318 15.8203 22.9557 15.8203 22.6328V18.2969H11.4844C11.1562 18.2969 10.875 18.1823 10.6406 17.9531C10.4115 17.7188 10.2969 17.4375 10.2969 17.1094Z" fill="#1D1F1C"/>
</svg>
