<svg width="17" height="22" viewBox="0 0 17 22" fill="none" xmlns="http://www.w3.org/2000/svg">
<path d="M11.1348 5.62155V6.58639C11.1348 6.75143 11.0903 6.88685 11.0015 6.99264C10.9168 7.09844 10.8068 7.1598 10.6714 7.17673C10.5402 7.18942 10.409 7.14076 10.2778 7.03073L8.43701 5.51364C8.25928 5.36553 8.17041 5.2026 8.17041 5.02487C8.17464 4.84714 8.26351 4.68633 8.43701 4.54245L10.2778 3.01901C10.4132 2.90898 10.5465 2.86243 10.6777 2.87936C10.8089 2.89629 10.9168 2.95977 11.0015 3.06979C11.0903 3.17559 11.1348 3.30889 11.1348 3.46969V4.42819H12.1758C12.6667 4.42819 13.1025 4.52975 13.4834 4.73288C13.8643 4.93177 14.1626 5.21107 14.3784 5.57077C14.5942 5.93047 14.7021 6.35365 14.7021 6.8403C14.7021 7.33118 14.5921 7.75859 14.3721 8.12253C14.1562 8.48646 13.8579 8.76999 13.4771 8.97311C13.0962 9.17201 12.6603 9.27145 12.1694 9.27145H11.4204C11.2427 9.27145 11.0882 9.22067 10.957 9.11911C10.8301 9.01331 10.7666 8.86732 10.7666 8.68112C10.7666 8.48646 10.8301 8.33835 10.957 8.23678C11.0882 8.13522 11.2342 8.08444 11.395 8.08444H12.1694C12.5545 8.08444 12.8698 7.96807 13.1152 7.73532C13.3607 7.49834 13.4834 7.18307 13.4834 6.78952C13.4834 6.42135 13.3586 6.13571 13.1089 5.93258C12.8634 5.72523 12.5524 5.62155 12.1758 5.62155H11.1348ZM6.3042 17.4536V15.8159H10.9126C11.6066 15.8159 12.1377 15.6805 12.5059 15.4096C12.8783 15.1388 13.0645 14.7643 13.0645 14.2861C13.0645 13.7994 12.8423 13.4017 12.3979 13.0927C11.9578 12.7838 11.249 12.5786 10.2715 12.477L6.55811 12.0898C5.18278 11.9502 4.13965 11.5735 3.42871 10.9599C2.72201 10.3421 2.36865 9.53805 2.36865 8.54782C2.36865 7.90036 2.52311 7.33965 2.83203 6.86569C3.14518 6.39173 3.58529 6.02568 4.15234 5.76755C4.7194 5.50941 5.3859 5.38034 6.15186 5.38034H7.37061C7.39176 5.54961 7.44678 5.71253 7.53564 5.86911C7.62451 6.02568 7.74512 6.16956 7.89746 6.30075L8.76709 7.01803H6.15186C5.45785 7.01803 4.92676 7.15345 4.55859 7.42428C4.19043 7.69512 4.00635 8.06963 4.00635 8.54782C4.00635 9.0387 4.2264 9.43861 4.6665 9.74753C5.10661 10.0564 5.81543 10.2617 6.79297 10.3632L10.5 10.7505C11.8796 10.8901 12.9248 11.2688 13.6357 11.8867C14.3467 12.5003 14.7021 13.3001 14.7021 14.2861C14.7021 14.9336 14.5456 15.4943 14.2324 15.9682C13.9193 16.4422 13.4792 16.8082 12.9121 17.0664C12.3451 17.3245 11.6785 17.4536 10.9126 17.4536H6.3042ZM4.65381 18.8691C4.21794 18.8691 3.82227 18.7633 3.4668 18.5517C3.11133 18.3401 2.8278 18.0545 2.61621 17.6948C2.40462 17.3393 2.29883 16.9437 2.29883 16.5078C2.29883 16.0761 2.40462 15.6826 2.61621 15.3271C2.8278 14.9716 3.11133 14.6881 3.4668 14.4765C3.82227 14.2649 4.21794 14.1591 4.65381 14.1591C5.08545 14.1591 5.479 14.2649 5.83447 14.4765C6.18994 14.6881 6.47347 14.9716 6.68506 15.3271C6.90088 15.6826 7.00879 16.0761 7.00879 16.5078C7.00879 16.9437 6.90088 17.3393 6.68506 17.6948C6.47347 18.0545 6.18994 18.3401 5.83447 18.5517C5.479 18.7633 5.08545 18.8691 4.65381 18.8691ZM4.65381 17.4028C4.90348 17.4028 5.11296 17.316 5.28223 17.1425C5.45573 16.969 5.54248 16.7575 5.54248 16.5078C5.54248 16.2539 5.45785 16.0444 5.28857 15.8794C5.1193 15.7101 4.90771 15.6255 4.65381 15.6255C4.40413 15.6255 4.19255 15.7101 4.01904 15.8794C3.84977 16.0486 3.76514 16.2581 3.76514 16.5078C3.76514 16.7575 3.84977 16.969 4.01904 17.1425C4.19255 17.316 4.40413 17.4028 4.65381 17.4028Z" fill="#8AAD68"/>
</svg>
