<svg width="37" height="38" viewBox="0 0 37 38" fill="none" xmlns="http://www.w3.org/2000/svg">
<circle cx="18.5" cy="18.5" r="10.5" fill="#1E3413"/>
<path d="M9.07812 32.5938C7.57812 32.5938 6.45833 32.224 5.71875 31.4844C4.97917 30.7448 4.60938 29.6198 4.60938 28.1094V24.8438C4.60938 24.5938 4.52083 24.375 4.34375 24.1875L2.03125 21.875C0.958333 20.8125 0.421875 19.7604 0.421875 18.7188C0.421875 17.6771 0.958333 16.6198 2.03125 15.5469L4.34375 13.2188C4.52083 13.0417 4.60938 12.8281 4.60938 12.5781V9.29688C4.60938 7.77604 4.97396 6.65104 5.70312 5.92188C6.44271 5.19271 7.56771 4.82812 9.07812 4.82812H12.3594C12.6198 4.82812 12.8333 4.73958 13 4.5625L15.3281 2.25C16.401 1.17708 17.4531 0.640625 18.4844 0.640625C19.526 0.630208 20.5833 1.16667 21.6562 2.25L23.9844 4.5625C24.1615 4.73958 24.375 4.82812 24.625 4.82812H27.9062C29.4167 4.82812 30.5365 5.19792 31.2656 5.9375C32.0052 6.67708 32.375 7.79688 32.375 9.29688V12.5781C32.375 12.8281 32.4688 13.0417 32.6562 13.2188L34.9688 15.5469C36.0312 16.6198 36.5625 17.6771 36.5625 18.7188C36.5625 19.7604 36.0312 20.8125 34.9688 21.875L32.6562 24.1875C32.4688 24.375 32.375 24.5938 32.375 24.8438V28.1094C32.375 29.6302 32.0052 30.7552 31.2656 31.4844C30.5365 32.224 29.4167 32.5938 27.9062 32.5938H24.625C24.375 32.5938 24.1615 32.6823 23.9844 32.8594L21.6562 35.1719C20.5938 36.2448 19.5417 36.7812 18.5 36.7812C17.4583 36.7812 16.401 36.2448 15.3281 35.1719L13 32.8594C12.8333 32.6823 12.6198 32.5938 12.3594 32.5938H9.07812ZM16.7812 26.5312C17.125 26.5312 17.4375 26.4531 17.7188 26.2969C18.0104 26.1302 18.2604 25.8958 18.4688 25.5938L25.7344 14.5C25.8594 14.3021 25.9583 14.099 26.0312 13.8906C26.1146 13.6823 26.1562 13.4792 26.1562 13.2812C26.1562 12.8021 25.974 12.4062 25.6094 12.0938C25.2552 11.7812 24.8438 11.625 24.375 11.625C23.7604 11.625 23.2448 11.9583 22.8281 12.625L16.75 22.2969L14.0156 18.9531C13.8073 18.6927 13.5885 18.5052 13.3594 18.3906C13.1406 18.276 12.8854 18.2188 12.5938 18.2188C12.125 18.2188 11.7188 18.3906 11.375 18.7344C11.0312 19.0677 10.8594 19.474 10.8594 19.9531C10.8594 20.1823 10.901 20.401 10.9844 20.6094C11.0677 20.8177 11.1979 21.0312 11.375 21.25L15.0312 25.625C15.2812 25.9271 15.5469 26.1562 15.8281 26.3125C16.1094 26.4583 16.4271 26.5312 16.7812 26.5312Z" fill="#B6DB91"/>
</svg>
