<svg width="28" height="20" viewBox="0 0 28 20" fill="none" xmlns="http://www.w3.org/2000/svg">
<g clip-path="url(#clip0_721_25)">
<path d="M27.4149 3.24041C27.0929 2.03198 26.1442 1.08039 24.9394 0.757436C22.7559 0.170503 14 0.170502 14 0.170502C14 0.170502 5.24416 0.170503 3.06057 0.757436C1.85589 1.08039 0.907066 2.03198 0.585093 3.24041C0 5.4306 0 10.0003 0 10.0003C0 10.0003 0 14.5699 0.585093 16.7603C0.907066 17.9686 1.85589 18.9202 3.06057 19.2433C5.24416 19.8301 14 19.8301 14 19.8301C14 19.8301 22.7559 19.8301 24.9394 19.2433C26.1442 18.9202 27.0929 17.9686 27.4149 16.7603C28 14.5699 28 10.0003 28 10.0003C28 10.0003 28 5.4306 27.4149 3.24041Z" fill="#1D1F1C"/>
<path d="M11.1367 14.1504L18.4549 10.0017L11.1367 5.85254V14.1504Z" fill="white"/>
</g>
<defs>
<clipPath id="clip0_721_25">
<rect width="28" height="19.6596" fill="white" transform="translate(0 0.169922)"/>
</clipPath>
</defs>
</svg>
